<?xml version="1.0" standalone="no"?>
<!DOCTYPE svg PUBLIC "-//W3C//DTD SVG 20010904//EN"
 "http://www.w3.org/TR/2001/REC-SVG-20010904/DTD/svg10.dtd">
<svg version="1.0" xmlns="http://www.w3.org/2000/svg"
 width="267.000000pt" height="267.000000pt" viewBox="0 0 267.000000 267.000000"
 preserveAspectRatio="xMidYMid meet">

<g transform="translate(0.000000,267.000000) scale(0.100000,-0.100000)"
fill="#000000" stroke="none">
<path d="M858 2490 c-175 -31 -308 -101 -445 -233 -126 -121 -185 -234 -218
-417 -14 -74 -19 -170 -22 -428 -5 -341 2 -480 33 -632 56 -272 286 -499 589
-581 117 -32 363 -33 487 -2 329 84 552 327 617 678 l8 45 -287 0 -287 0 -11
-37 c-17 -58 -67 -129 -112 -162 -79 -57 -214 -65 -308 -17 -83 42 -120 101
-149 237 -15 71 -18 133 -18 394 0 329 8 417 47 507 45 104 157 165 287 156
114 -8 194 -69 241 -181 l24 -57 287 0 287 0 -14 63 c-23 100 -44 157 -90 247
-81 158 -196 272 -350 346 -122 59 -208 76 -389 80 -88 1 -181 -1 -207 -6z"/>
<path d="M1405 1473 c36 -60 65 -112 65 -117 0 -5 -31 -60 -69 -122 l-69 -114
64 0 64 0 35 70 c19 39 37 70 40 70 2 0 20 -31 41 -70 l36 -70 64 0 64 0 -70
114 c-39 62 -70 117 -70 123 0 5 21 42 46 83 25 41 55 90 66 108 l20 32 -64 0
-63 0 -35 -65 -34 -65 -36 65 -35 65 -62 0 -62 0 64 -107z"/>
<path d="M1790 1350 l0 -230 150 0 150 0 0 50 0 50 -95 0 -95 0 0 180 0 180
-55 0 -55 0 0 -230z"/>
<path d="M2248 1568 c-22 -6 -50 -24 -68 -44 -26 -30 -30 -43 -30 -90 0 -47 4
-60 28 -84 25 -24 99 -50 147 -50 15 0 45 -27 45 -40 0 -38 -94 -54 -149 -26
-27 14 -29 14 -62 -20 l-34 -35 25 -19 c26 -20 101 -40 148 -40 51 0 106 22
139 55 29 29 33 40 33 84 0 91 -32 124 -131 137 -50 6 -89 26 -89 45 0 34 89
53 130 27 17 -11 24 -8 55 22 l36 34 -23 18 c-46 34 -129 45 -200 26z"/>
</g>
</svg>
